<?xml version="1.0" encoding="UTF-8"?>
<svg width="18px" height="18px" viewBox="0 0 18 18" version="1.1" xmlns="http://www.w3.org/2000/svg" xmlns:xlink="http://www.w3.org/1999/xlink">
    <title>link-default</title>
    <g id="Summit_new" stroke="none" stroke-width="1" fill="none" fill-rule="evenodd">
        <g id="Summit_Agenda-议题简介" transform="translate(-991.000000, -67.000000)">
            <g id="row" transform="translate(276.000000, 64.000000)">
                <g id="link-default" transform="translate(716.000000, 4.000000)">
                    <circle id="椭圆形" stroke="#002FA7" fill="#FFFFFF" cx="8" cy="8" r="8"></circle>
                    <g id="链接" transform="translate(4.000000, 4.000000)" fill="#002FA7" fill-rule="nonzero">
                        <path d="M4.53929347,5.69132151 C4.47241991,5.62416727 4.53929347,5.69132151 4.53929347,5.69132151 L3.33556946,6.96725199 C2.73370745,7.57164012 1.73060411,7.57164012 1.1287421,6.96725199 C0.526880098,6.36286387 0.460006541,5.42270456 1.1287421,4.7511622 L2.39933967,3.47523172 L2.33246611,3.40807748 L1.93122478,3.0723063 L1.86435122,3.00515206 L0.593753654,4.28108255 C-0.20872902,5.08693338 -0.20872902,6.56432658 0.66062721,7.37017741 C1.52998344,8.17602824 2.93432812,8.24318248 3.80368435,7.37017741 L5.07428192,6.09424692 L5.00740836,6.02709269 L4.53929347,5.69132151 Z M4.94053481,2.60222665 C5.00740836,2.60222665 5.00740836,2.60222665 4.94053481,2.60222665 L5.34177614,3.00515206 L5.4086497,3.0723063 L3.00120168,5.4898588 L2.59996034,4.95262491 L4.94053481,2.60222665 L4.94053481,2.60222665 Z M4.20492569,0.654753802 C5.07428192,-0.218251267 6.4786266,-0.218251267 7.34798283,0.654753802 C8.21733906,1.52775887 8.21733906,2.93799783 7.34798283,3.8110029 L6.07738526,5.08693338 L5.60927037,4.61685373 L6.94674149,3.27376901 C7.41485638,2.80368936 7.48172994,1.72922158 6.87986793,1.12483345 C6.27800593,0.52044533 5.20802903,0.52044533 4.73991414,1.05767922 L3.40244301,2.40076394 L3.40244301,2.3336097 L3.00120168,1.93068429 L2.93432812,1.86353005 L4.20492569,0.654753802 Z" id="Shape"></path>
                    </g>
                </g>
            </g>
        </g>
    </g>
</svg>