<svg id="icon-icon-edit" viewBox="0 0 32 32">
    <path fill="currentColor"  d="M27.687 15.351v9.739c0 1.434-1.163 2.597-2.597 2.597h-18.18c-1.434 0-2.597-1.163-2.597-2.597v-18.18c0-1.434 1.163-2.597 2.597-2.597h9.739c0.359 0 0.649 0.291 0.649 0.649v1.299c0 0.359-0.291 0.649-0.649 0.649h-9.739v18.18h18.18v-9.739c0-0.359 0.291-0.649 0.649-0.649h1.299c0.359 0 0.649 0.291 0.649 0.649zM27.31 5.235l-0.545-0.545c-0.242-0.24-0.568-0.375-0.909-0.377h-0.39c-0.341 0.001-0.667 0.137-0.909 0.377l-2.337 2.337c-0.247 0.252-0.247 0.657 0 0.909l1.844 1.844c0.252 0.247 0.657 0.247 0.909 0l2.337-2.337c0.24-0.242 0.375-0.568 0.377-0.909v-0.39c-0.001-0.341-0.137-0.667-0.377-0.909zM10.585 18.974l-1.026 2.597c-0.097 0.241-0.041 0.517 0.143 0.701v0c0.184 0.184 0.46 0.24 0.701 0.143l2.597-1.026c0.33-0.128 0.631-0.323 0.883-0.571l8.609-8.518c0.247-0.252 0.247-0.657 0-0.909l-1.883-1.883c-0.252-0.247-0.657-0.247-0.909 0l-8.544 8.583c-0.249 0.252-0.443 0.553-0.571 0.883z"></path>
</svg>